<svg id="Layer_1" enable-background="new 0 0 24 24" height="24" viewBox="0 0 24 24" width="24" xmlns="http://www.w3.org/2000/svg" xmlns:xlink="http://www.w3.org/1999/xlink"><linearGradient id="SVGID_1_" gradientUnits="userSpaceOnUse" x1="4.929" x2="19.071" y1="4.929" y2="19.071"><stop offset="0" stop-color="#ee9ae5"/><stop offset=".1344601" stop-color="#e295e7"/><stop offset=".3776338" stop-color="#c289eb"/><stop offset=".6991384" stop-color="#8f76f2"/><stop offset="1" stop-color="#5961f9"/></linearGradient><g><g><g><path d="m12 2c-5.5228271 0-10 4.4771729-10 10s4.4771729 10 10 10 10-4.4771729 10-10-4.4771729-10-10-10zm5.0985107 10.4628906c-.6741333.6734619-1.5678101 1.0793457-2.5172119 1.1433716-.3719482.0217896-.6734619-.2496948-.6984253-.6101074-.024353-.3616943.2490234-.6741333.6101074-.6981201.6331177-.0425415 1.229126-.3133545 1.6785278-.7624512 1.0223389-1.0220947 1.0223389-2.6859131 0-3.708313-.4954834-.4951782-1.1542358-.7678833-1.8546143-.7678833-.7003174 0-1.3584595.2727051-1.8539429.7678833-1.0223999 1.0223999-1.0223999 2.6862183 0 3.7086182 1.5332031 1.5332642 1.5332031 4.0286865.0003052 5.5626221-.7669067.7669067-1.774231 1.1497803-2.7815552 1.1497803s-2.0143433-.3828735-2.781311-1.1497803c-.7429199-.7432861-1.1519775-1.7310791-1.1519775-2.7816162s.4090576-2.0383911 1.1519775-2.7810059c.6447144-.6449585 1.4990234-1.0476685 2.4048462-1.1340942.3652344-.0377808.680542.2301636.7150879.590271.0342407.3604126-.2301636.680542-.59021.7150879-.6036986.0576171-1.1728514.3258666-1.602722.7557372-.4951782.4954834-.7678833 1.1536255-.7678833 1.8540039s.2727051 1.3591309.7678833 1.8546143c1.0223999 1.0217285 2.6862183 1.0217285 3.7085571 0 1.0220337-1.0223999 1.0220337-2.6862183 0-3.7086182-1.5335083-1.5335693-1.5335083-4.0290527 0-5.5626221.7426147-.7429199 1.7304077-1.1519775 2.7809448-1.1519775s2.0383301.4090576 2.7816162 1.1519775c1.5332032 1.5335694 1.5332032 4.0290528 0 5.5626221z" fill="#ee9ae5"/></g></g><g><g fill="url(#SVGID_1_)"><path d="m12 2c-5.5228271 0-10 4.4771729-10 10s4.4771729 10 10 10 10-4.4771729 10-10-4.4771729-10-10-10zm5.0985107 10.4628906c-.6741333.6734619-1.5678101 1.0793457-2.5172119 1.1433716-.3719482.0217896-.6734619-.2496948-.6984253-.6101074-.024353-.3616943.2490234-.6741333.6101074-.6981201.6331177-.0425415 1.229126-.3133545 1.6785278-.7624512 1.0223389-1.0220947 1.0223389-2.6859131 0-3.708313-.4954834-.4951782-1.1542358-.7678833-1.8546143-.7678833-.7003174 0-1.3584595.2727051-1.8539429.7678833-1.0223999 1.0223999-1.0223999 2.6862183 0 3.7086182 1.5332031 1.5332642 1.5332031 4.0286865.0003052 5.5626221-.7669067.7669067-1.774231 1.1497803-2.7815552 1.1497803s-2.0143433-.3828735-2.781311-1.1497803c-.7429199-.7432861-1.1519775-1.7310791-1.1519775-2.7816162s.4090576-2.0383911 1.1519775-2.7810059c.6447144-.6449585 1.4990234-1.0476685 2.4048462-1.1340942.3652344-.0377808.680542.2301636.7150879.590271.0342407.3604126-.2301636.680542-.59021.7150879-.6036986.0576171-1.1728514.3258666-1.602722.7557372-.4951782.4954834-.7678833 1.1536255-.7678833 1.8540039s.2727051 1.3591309.7678833 1.8546143c1.0223999 1.0217285 2.6862183 1.0217285 3.7085571 0 1.0220337-1.0223999 1.0220337-2.6862183 0-3.7086182-1.5335083-1.5335693-1.5335083-4.0290527 0-5.5626221.7426147-.7429199 1.7304077-1.1519775 2.7809448-1.1519775s2.0383301.4090576 2.7816162 1.1519775c1.5332032 1.5335694 1.5332032 4.0290528 0 5.5626221z"/><path d="m12 3c4.9626236 0 9 4.0373764 9 9s-4.0373764 9-9 9-9-4.0373764-9-9 4.0373764-9 9-9m-2.6056976 6.3983612c-.006813-.0000763-.0136642-.0001221-.0204926-.0001221-.0565872 0-.1138763.0028915-.1635513.0080719-1.1370392.10849-2.2085266.6137161-3.0168304 1.4223328-.931839.9314346-1.445015 2.1702576-1.445015 3.4882431 0 1.317543.5130692 2.5564651 1.4449005 3.4887543.9303741.9303055 2.1692352 1.4426498 3.4883881 1.4426498 1.3193817 0 2.558342-.512352 3.4889069-1.4429092.8878479-.8884506 1.3656311-2.0338058 1.4333878-3.1989441l.0109863-.0001755.0335999-.0022736c1.1905594-.0802765 2.3116302-.5894165 3.1571198-1.434082 1.9230042-1.9234695 1.9230042-5.0531845-.0002594-6.9769135-.9320908-.931633-2.1710129-1.4447021-3.4885559-1.4447021-1.3179474 0-2.5567474.513176-3.48806 1.4448853-.8898699.8899078-1.3680346 2.0378112-1.4345247 3.2051849m4.9225845-1.338974c.4335022 0 .8411026.1687622 1.1474915.4749756.3055954.3055954.4738846.7130051.4738922 1.1471786 0 .4341049-.1682587.8414001-.4736328 1.146698-.2782745.2780914-.6471558.4457321-1.0379486.4719925-.2470703.0164108-.4822388.0861588-.6925049.2028046-.1648407-.2371979-.3528671-.4629898-.5641251-.6742554-.3056107-.305603-.4739075-.7130203-.4739075-1.1472015s.1682968-.8415985.4736862-1.1469803c.306633-.3064423.7140046-.4752121 1.147049-.4752121m-4.0762405 4.4014969c.1704865.2498398.3665543.4874649.5880737.7089844.6324081.6326447.6324081 1.6620178.0003433 2.2943192-.3056107.3054199-.7130814.4736252-1.147377.4736252-.434288 0-.8417892-.1682129-1.1469727-.4731903-.3064423-.306633-.4752045-.7142334-.4752045-1.1477356 0-.4330978.1687622-.840477.4749908-1.1468887.2657776-.2657852.6175919-.4317703.9910965-.4674149.2625352-.0251923.5050126-.1107636.7150499-.2416993m1.7593536-10.4608841c-5.5228271 0-10 4.4771729-10 10s4.4771729 10 10 10 10-4.4771729 10-10-4.4771729-10-10-10zm-2.318306 14.9378052c.6715469 0 1.3430862-.2554321 1.8542557-.7662964 1.0220337-1.0223999 1.0220337-2.6862183 0-3.7086182-1.5335083-1.5335693-1.5335083-4.0290527 0-5.5626221.7426071-.7429199 1.7304077-1.1519775 2.7809372-1.1519775 1.0505447 0 2.0383301.4090576 2.7816238 1.1519775 1.5331955 1.5335693 1.5331955 4.0290527 0 5.5626221-.6741333.6734619-1.5678101 1.0793457-2.5172119 1.1433716-.0139847.0008163-.027916.0012207-.0416946.0012207-.3525848 0-.6327057-.2644653-.6567307-.6113358-.024353-.3616867.2490234-.6741257.6101074-.6981201.6331177-.0425339 1.229126-.3133469 1.6785278-.7624435 1.0223389-1.0220947 1.0223389-2.6859131 0-3.708313-.4954758-.4951782-1.1542358-.7678833-1.8546219-.7678833-.7003098 0-1.3584442.2727051-1.8539352.7678833-1.0223999 1.0223999-1.0223999 2.6862183 0 3.7086182 1.5331955 1.5332642 1.5331955 4.0286942.0003052 5.5626221-.7669067.7669067-1.7742233 1.1497803-2.7815552 1.1497803-1.0073242 0-2.0143433-.3828735-2.781311-1.1497803-.7429199-.7432938-1.1519775-1.7310791-1.1519775-2.7816238 0-1.0505295.4090576-2.0383835 1.1519775-2.7809982.6447067-.6449585 1.4990158-1.0476685 2.4048462-1.1341019.0230789-.0023804.0459595-.0035477.068573-.0035477.3353882 0 .614151.2564697.6465073.5938339.034256.360405-.2301559.6805344-.59021.7150803-.6036835.0576172-1.1728439.3258667-1.6027145.7557373-.4951859.4954758-.7678833 1.1536331-.7678833 1.8539963 0 .700386.2726974 1.3591461.7678833 1.8546219.5111999.5108641 1.1827545.7662963 1.8543014.7662963z"/></g></g></g></svg>