<svg id="Layer_1" height="512" viewBox="0 0 512 512" width="512" xmlns="http://www.w3.org/2000/svg" xmlns:xlink="http://www.w3.org/1999/xlink" data-name="Layer 1"><linearGradient id="linear-gradient" gradientUnits="userSpaceOnUse" x1="164.084" x2="347.916" y1="164.084" y2="347.916"><stop offset="0" stop-color="#55d6ff"/><stop offset="1" stop-color="#ce55ff"/></linearGradient><path d="m219.469 370.154 3.134 2.153-61.731 61.728a93.652 93.652 0 0 1 -66.678 27.581h-.007a94.362 94.362 0 0 1 -66.687-160.95l139.043-139.042a94.308 94.308 0 0 1 133.37 133.376l-25.426 25.427-1.587-.25a36.756 36.756 0 0 1 -30.778-31.812l-.19-1.533 24.907-24.907a47.533 47.533 0 0 0 -67.223-67.225l-139.04 139.04a47.533 47.533 0 0 0 67.224 67.221l61.868-61.867 2.145 3.177a105.182 105.182 0 0 0 27.658 27.883zm265.031-292.191a94.41 94.41 0 0 0 -133.37 0l-61.73 61.727 3.132 2.153a105.067 105.067 0 0 1 27.654 27.887l2.143 3.18 61.871-61.872a47.534 47.534 0 0 1 67.224 67.222l-139.042 139.04a47.532 47.532 0 0 1 -67.219-67.223l24.9-24.908-.19-1.532a36.828 36.828 0 0 0 -30.747-31.831l-1.594-.256-25.447 25.45a94.308 94.308 0 0 0 133.371 133.375l139.044-139.04a94.6 94.6 0 0 0 0-133.372z" fill="url(#linear-gradient)"/></svg>