<svg clip-rule="evenodd" fill-rule="evenodd" height="173.397mm" image-rendering="optimizeQuality" shape-rendering="geometricPrecision" text-rendering="geometricPrecision" viewBox="0 0 173.397 173.397" width="173.397mm" xmlns="http://www.w3.org/2000/svg"><g id="Layer_x0020_1"><g id="_278609536" fill="#ab53d8"><path id="_278606008" d="m124.66 49.6009c-15.7077-19.6971-43.8725-25.489-66.3536-12.5094-12.4324 7.1779-20.761 18.732-24.1671 31.5927-.4606 1.739-1.9726 2.9134-3.7715 2.9293l-11.774.1032c-1.2373.0109-2.3066-.4915-3.0879-1.451-.7812-.9594-1.0567-2.1084-.7954-3.3178 4.09-18.9294 15.8509-36.1279 33.9439-46.5738 32.0071-18.4793 72.4096-9.2422 93.4183 20.2629.9794 1.3756 2.8396 1.3481 4.0688.1904l8.0153-7.5506c2.3504-2.2142 6.3555-.8885 6.0655 2.3272l-3.8417 42.5602c-.2326 2.578-2.7665 4.0406-5.1149 2.9532l-38.7787-17.9531c-2.9301-1.3565-2.0663-5.4582 1.017-6.4166l9.6157-2.9888c1.8673-.5802 2.7595-2.6293 1.5403-4.158z"/><path id="_278606128" d="m48.7369 123.796c15.7077 19.6971 43.8725 25.489 66.3536 12.5094 12.4324-7.1779 20.761-18.732 24.1671-31.5927.4606-1.739 1.9726-2.9134 3.7715-2.9293l11.774-.1032c1.2373-.0109 2.3066.4915 3.0879 1.451.7812.9594 1.0567 2.1084.7954 3.3178-4.09 18.9294-15.8509 36.1279-33.9439 46.5738-32.0071 18.4793-72.4096 9.2422-93.4183-20.2629-.9794-1.3756-2.8396-1.3481-4.0688-.1904l-8.0153 7.5506c-2.3504 2.2142-6.3555.8885-6.0655-2.3272l3.8417-42.5602c.2326-2.578 2.7665-4.0406 5.1149-2.9532l38.7787 17.9531c2.9301 1.3565 2.0663 5.4582-1.017 6.4166l-9.6157 2.9888c-1.8673.5802-2.7595 2.6293-1.5403 4.158z"/></g></g></svg>